<?xml version="1.0" encoding="utf-8"?>
<svg version="1.0" width="300.000000pt" height="310.000000pt" viewBox="0 0 300.000000 310.000000" preserveAspectRatio="xMidYMid meet" xmlns="http://www.w3.org/2000/svg">
  <g transform="translate(0.000000,310.000000) scale(0.100000,-0.100000)" fill="#000000" stroke="none">
    <path d="M 640 2983 C 582 2965 540 2934 540 2911 C 540 2902 543 2899 548 2905 C 552 2911 561 2915 569 2915 C 577 2915 585 2921 588 2929 C 591 2938 588 2940 580 2935 C 572 2930 569 2931 573 2938 C 581 2949 598 2949 617 2937 C 623 2933 630 2936 632 2942 C 635 2951 657 2955 698 2954 C 747 2954 765 2949 783 2932 C 806 2910 836 2901 825 2920 C 814 2937 830 2931 865 2905 C 883 2891 901 2868 904 2855 C 907 2842 917 2824 926 2816 C 934 2807 936 2800 930 2800 C 923 2800 925 2790 934 2771 C 957 2727 933 2600 879 2483 C 869 2459 860 2438 860 2435 C 860 2419 763 2292 741 2280 C 727 2272 712 2261 709 2257 C 706 2253 679 2246 649 2243 C 605 2239 585 2242 553 2258 C 500 2286 433 2361 403 2430 C 361 2522 380 2639 448 2713 C 462 2728 471 2740 467 2740 C 464 2740 483 2763 510 2791 C 561 2844 572 2870 544 2870 C 534 2870 530 2865 534 2854 C 537 2846 536 2841 532 2844 C 516 2854 414 2729 427 2716 C 431 2712 427 2712 418 2715 C 403 2721 396 2709 374 2645 C 361 2607 349 2520 354 2492 C 368 2402 445 2291 526 2244 C 596 2203 717 2212 768 2262 C 794 2288 880 2406 880 2416 C 880 2420 891 2447 905 2476 C 919 2505 931 2537 933 2547 C 934 2557 938 2570 942 2575 C 949 2587 964 2681 961 2694 C 960 2699 964 2706 971 2710 C 979 2716 979 2723 971 2738 C 965 2749 960 2769 959 2782 C 958 2854 866 2965 814 2958 C 802 2957 787 2960 779 2966 C 771 2972 758 2977 750 2978 C 742 2978 717 2980 695 2983 C 673 2986 648 2986 640 2983 Z M 520 2816 C 520 2813 516 2808 510 2805 C 505 2802 500 2804 500 2809 C 500 2815 505 2820 510 2820 C 516 2820 520 2818 520 2816 Z" style="fill: rgb(249, 65, 68);"/>
    <path d="M1293 2895 c-26 -25 -30 -50 -9 -58 11 -4 13 -1 9 10 -5 12 -2 15 9 10 12 -4 14 -1 11 14 -4 15 0 19 21 19 14 0 26 6 26 12 0 7 7 3 15 -9 9 -13 22 -20 31 -16 27 10 54 -26 53 -71 -1 -57 -13 -91 -30 -89 -8 0 -57 9 -110 19 -53 9 -105 14 -115 10 -18 -8 -18 -8 1 -16 21 -9 174 -26 189 -21 11 3 26 -19 26 -37 0 -8 -6 -12 -12 -10 -13 5 -38 -14 -38 -29 -1 -15 -80 -64 -114 -70 -29 -4 -40 0 -71 29 -30 27 -38 43 -42 80 -5 40 -2 48 16 60 11 7 21 17 21 23 0 6 19 29 41 53 23 23 39 45 36 48 -13 13 -87 -50 -104 -88 -7 -16 -19 -28 -26 -28 -23 0 -9 -98 19 -142 32 -50 69 -68 119 -59 22 4 51 13 64 21 31 16 110 101 111 118 0 11 13 16 33 13 5 -1 6 3 3 8 -4 5 -1 41 6 80 12 68 11 71 -11 95 -12 13 -39 27 -59 31 -78 15 -96 13 -119 -10z" style="fill: rgb(243, 114, 44);"/>
    <path d="M580 2871 c0 -12 6 -21 15 -21 8 0 15 4 15 9 0 5 -7 14 -15 21 -13 10 -15 9 -15 -9z"/>
    <path d="M1015 2740 c-14 -6 -15 -9 -5 -10 10 -1 9 -4 -5 -10 -17 -7 -15 -9 10 -8 45 1 80 11 83 26 2 14 -51 16 -83 2z m45 -4 c0 -3 -4 -8 -10 -11 -5 -3 -10 -1 -10 4 0 6 5 11 10 11 6 0 10 -2 10 -4z"/>
    <path d="M1866 2728 c5 -8 2 -9 -9 -5 -10 3 -17 2 -17 -3 0 -6 10 -11 23 -12 12 -1 29 -2 38 -3 20 -1 49 -23 49 -37 0 -6 -9 0 -20 13 l-21 24 16 -39 c17 -44 20 -76 5 -76 -5 0 -19 4 -32 9 -48 19 -134 43 -155 43 -14 0 -25 8 -29 21 -6 18 -8 19 -18 5 -10 -13 -17 -13 -66 3 -80 26 -140 34 -140 18 0 -7 3 -10 6 -7 3 4 24 0 47 -7 23 -7 59 -16 80 -20 39 -6 44 -14 26 -44 -18 -27 -2 -90 31 -123 23 -23 37 -28 74 -28 25 0 46 4 46 10 0 5 7 7 14 4 9 -3 31 10 53 33 21 21 41 37 46 35 4 -1 6 4 5 11 -3 13 33 11 42 -3 3 -4 16 -11 30 -15 48 -15 189 -87 206 -106 16 -18 16 -20 -6 -37 -15 -12 -24 -33 -27 -63 -4 -38 -1 -50 18 -73 28 -32 78 -41 126 -24 42 15 56 43 16 33 -78 -19 -101 -18 -118 8 -22 34 -22 83 0 107 24 26 26 26 66 -12 36 -35 159 -195 140 -184 -6 4 -11 2 -11 -4 0 -7 7 -10 14 -7 10 4 23 -6 36 -28 11 -18 28 -36 36 -39 13 -5 14 -9 4 -21 -18 -22 -25 -19 -38 19 -7 19 -19 40 -27 46 -13 11 -12 6 1 -26 9 -22 20 -43 25 -48 5 -6 9 -25 9 -44 0 -34 13 -66 36 -90 8 -7 39 -93 69 -190 31 -97 60 -184 66 -192 5 -8 13 -24 18 -35 12 -27 38 -48 50 -41 16 10 21 -9 27 -111 4 -54 8 -100 10 -102 2 -2 -1 -12 -7 -22 -6 -13 -6 -25 0 -38 12 -22 17 -333 6 -351 -5 -7 -9 -32 -10 -54 -4 -96 -5 -106 -12 -106 -5 0 -15 15 -24 32 -8 17 -21 34 -29 36 -9 3 -6 -7 8 -30 42 -68 64 -238 31 -238 -10 0 -29 -42 -23 -49 2 -2 13 7 24 20 l21 24 -5 -37 c-2 -21 0 -40 5 -43 5 -4 10 6 11 22 3 56 5 79 12 110 4 18 3 34 -3 38 -14 8 -12 97 5 169 7 33 11 63 8 67 -2 4 0 10 5 14 12 7 33 -29 23 -39 -3 -4 1 -4 11 0 23 8 22 30 -3 47 -17 12 -20 29 -24 150 -3 75 -8 148 -12 162 -6 25 -5 25 21 13 16 -7 29 -8 33 -2 4 5 14 9 22 9 22 0 25 49 4 66 -16 12 -17 12 -11 -4 8 -22 -8 -57 -28 -57 -20 0 -45 28 -45 52 0 19 1 20 25 4 32 -21 33 -8 1 19 -22 18 -25 30 -30 128 -6 108 -6 109 20 129 28 23 44 56 37 76 -3 7 -24 24 -47 37 -37 22 -44 32 -65 97 -13 40 -39 107 -58 148 -30 66 -33 77 -21 100 7 14 16 27 19 30 11 8 -15 72 -33 84 -13 8 -21 7 -30 -2 -11 -11 -9 -16 10 -31 17 -12 23 -25 20 -44 -1 -15 -7 -28 -12 -28 -5 -1 -27 32 -49 73 -21 40 -53 87 -71 104 -62 62 -104 134 -77 134 4 0 23 16 42 35 39 40 41 77 7 133 -35 57 -92 70 -131 29 -12 -12 -34 -31 -50 -40 -27 -17 -28 -17 -70 11 -46 32 -192 102 -213 102 -9 0 -12 17 -11 59 2 53 -1 63 -27 90 -28 30 -86 45 -70 19z m-106 -107 c30 -11 72 -22 93 -26 20 -4 40 -12 44 -18 7 -11 -44 -57 -63 -57 -7 0 -15 -7 -18 -16 -3 -8 -10 -12 -16 -9 -5 3 -10 2 -10 -4 0 -5 -17 -8 -37 -6 -66 6 -105 80 -71 135 15 24 12 24 78 1z m615 -141 c4 -6 10 -8 14 -5 5 2 19 -8 32 -23 13 -14 16 -20 7 -13 -22 16 -22 13 -2 -34 15 -36 14 -38 -8 -63 -47 -53 -46 -53 -109 11 -61 63 -65 87 -14 81 21 -2 25 1 20 16 -9 28 45 54 60 30z m168 -477 c15 -31 26 -57 24 -59 -1 -2 -13 -1 -25 3 -26 6 -52 50 -52 88 0 41 23 27 53 -32z m71 -135 c18 -40 46 -112 61 -159 l28 -86 -21 -21 c-12 -12 -22 -31 -22 -43 0 -35 -18 -11 -25 33 -4 24 -28 101 -52 173 -24 71 -47 138 -50 147 -3 11 2 18 19 21 12 2 24 5 25 6 2 0 18 -32 37 -71z m149 -329 c-18 -37 -29 -29 -36 28 -6 53 2 61 30 29 20 -24 21 -27 6 -57z m-53 29 c0 -13 3 -33 6 -45 5 -17 2 -23 -9 -23 -25 0 -39 34 -27 64 12 32 30 34 30 4z" style="fill: rgb(248, 150, 30);"/>
    <path d="M1821 2722 c-1 -9 -11 -11 -35 -7 -20 4 -36 2 -41 -4 -3 -6 -10 -9 -14 -7 -4 3 -8 -1 -8 -9 0 -17 16 -19 51 -6 22 9 26 7 37 -22 l13 -32 3 28 c3 15 2 37 0 50 -2 12 -5 16 -6 9z" style="fill: rgb(249, 132, 74);"/>
    <path d="M850 2689 c-30 -16 -56 -34 -58 -39 -2 -6 -8 -10 -13 -10 -20 0 -101 -58 -90 -64 13 -8 5 -26 -10 -26 -6 0 -7 5 -3 12 4 6 -27 -18 -68 -54 -42 -37 -95 -79 -117 -94 -23 -14 -41 -29 -41 -31 0 -2 4 -2 9 2 5 3 12 1 16 -5 3 -5 11 -10 17 -10 6 0 6 6 -2 15 -11 13 -9 15 11 13 16 -2 23 2 21 10 -1 8 2 11 8 7 13 -8 30 4 130 95 100 90 111 99 128 100 12 0 22 7 56 37 8 7 25 15 39 18 18 5 25 13 25 31 0 13 -1 24 -2 23 0 -1 -26 -14 -56 -30z m40 -3 c0 -2 -7 -7 -16 -10 -8 -3 -12 -2 -9 4 6 10 25 14 25 6z m-55 -35 c-3 -6 -14 -11 -23 -11 -15 1 -15 2 2 15 21 16 32 13 21 -4z"/>
    <path d="M1230 2655 c7 -8 22 -15 34 -15 18 0 17 2 -8 15 -36 19 -42 19 -26 0z"/>
    <path d="M1300 2650 c0 -5 5 -10 11 -10 5 0 7 5 4 10 -3 6 -8 10 -11 10 -2 0 -4 -4 -4 -10z"/>
    <path d="M1070 2640 c8 -5 20 -10 25 -10 6 0 3 5 -5 10 -8 5 -19 10 -25 10 -5 0 -3 -5 5 -10z"/>
    <path d="M1558 2131 c16 -10 -30 -30 -68 -30 -61 2 -114 -34 -141 -97 -21 -46 -40 -65 -47 -46 -6 18 -20 14 -27 -8 -3 -11 -15 -20 -25 -20 -23 0 -80 -53 -80 -74 0 -25 18 -19 51 19 17 19 37 35 45 35 8 0 14 10 15 23 0 12 3 17 5 10 3 -7 11 -10 19 -7 10 4 16 -6 21 -31 9 -50 59 -100 114 -115 51 -14 150 -9 195 9 50 20 10 30 -54 13 -103 -27 -190 3 -221 78 -11 27 -10 39 6 85 10 30 20 52 22 50 3 -3 11 3 18 13 7 9 16 17 21 18 4 0 22 6 38 13 17 6 36 14 42 16 7 2 20 -6 29 -18 l16 -22 -7 25 -8 24 29 -18 c16 -10 41 -32 57 -49 24 -28 27 -29 27 -10 0 19 -25 46 -76 81 -17 11 -14 12 19 8 44 -6 102 -46 112 -76 4 -11 10 -18 14 -15 9 5 13 -25 13 -94 0 -42 1 -43 13 -21 9 17 14 19 18 9 3 -8 6 8 6 34 1 26 -5 60 -13 75 -23 44 -78 89 -129 106 -52 18 -91 22 -69 7z m-308 -215 c0 -3 -4 -8 -10 -11 -5 -3 -10 -1 -10 4 0 6 5 11 10 11 6 0 10 -2 10 -4z" style="fill: rgb(39, 125, 161);"/>
    <path d="M2532 2099 c2 -7 10 -15 17 -17 8 -3 12 1 9 9 -2 7 -10 15 -17 17 -8 3 -12 -1 -9 -9z"/>
    <path d="M490 2031 c0 -7 -4 -10 -9 -6 -13 8 -51 -34 -51 -56 0 -10 5 -28 10 -41 16 -34 90 -65 90 -37 0 6 7 9 15 5 8 -3 15 -1 15 4 0 6 6 9 13 8 7 -2 13 10 15 28 3 35 -30 84 -57 84 -9 0 -22 5 -29 12 -9 9 -12 9 -12 -1z m36 -78 c4 4 -1 16 -11 27 -26 29 1 25 30 -4 46 -46 -2 -96 -55 -57 -19 14 -25 28 -26 57 l-1 38 28 -34 c16 -18 32 -31 35 -27z" style="fill: rgb(77, 144, 142);"/>
    <path d="M1509 2005 c18 -8 39 -15 46 -15 16 0 68 -41 61 -48 -3 -2 -11 0 -18 5 -20 15 -48 23 -48 14 0 -5 22 -18 49 -30 32 -14 82 -53 150 -119 85 -83 106 -111 134 -173 55 -120 55 -118 5 -112 -157 18 -240 111 -174 197 17 23 22 37 15 41 -6 4 -17 -2 -25 -13 -8 -12 -20 -27 -27 -34 -7 -7 -12 -32 -11 -56 0 -34 7 -49 33 -76 43 -44 113 -74 173 -74 26 0 52 -3 58 -7 12 -8 13 -94 1 -114 -5 -7 -14 -10 -21 -6 -18 11 -58 -14 -65 -42 -12 -48 0 -60 64 -62 33 -1 62 3 66 8 3 6 1 29 -5 52 -6 22 -12 72 -14 110 -1 60 1 69 16 70 36 3 40 4 52 22 7 9 16 17 20 17 11 0 65 64 66 78 1 47 -90 162 -128 162 -10 0 -38 11 -64 25 -45 24 -98 33 -98 17 0 -4 -8 -12 -19 -19 -16 -10 -30 -1 -112 78 -100 95 -111 102 -174 113 l-40 6 34 -15z m392 -195 c10 -6 19 -19 19 -30 0 -21 20 -38 21 -18 0 10 2 10 6 1 8 -22 25 -14 18 8 -6 18 -5 19 14 10 49 -27 105 -146 84 -179 -5 -10 -12 -15 -15 -12 -2 3 -12 -3 -22 -13 -10 -9 -22 -14 -28 -11 -7 4 -8 2 -4 -4 8 -13 -33 -37 -43 -25 -4 4 -20 37 -35 73 -33 78 -81 156 -101 164 -8 3 -15 13 -15 21 0 9 5 13 10 10 6 -3 10 -1 10 4 0 14 55 14 81 1z m188 -155 c0 -5 -6 1 -14 15 -8 14 -14 30 -14 35 0 6 6 -1 14 -15 8 -14 14 -29 14 -35z m-157 -297 c9 -7 18 -22 20 -33 3 -17 -3 -20 -37 -20 -36 0 -40 3 -43 27 -3 25 2 29 39 37 3 0 12 -5 21 -11z" style="fill: rgb(147, 192, 212);"/>
    <path d="M1905 1339 c-4 -6 -5 -12 -2 -15 2 -3 7 2 10 11 7 17 1 20 -8 4z"/>
    <path d="M1425 2000 c-3 -5 1 -11 7 -13 7 -3 0 -6 -15 -6 -17 -1 -26 -5 -22 -12 4 -5 19 -7 34 -4 40 9 71 -6 174 -86 136 -104 177 -140 177 -155 0 -8 5 -14 10 -14 37 0 -22 68 -125 144 -55 41 -109 84 -119 95 -11 12 -24 21 -30 21 -7 0 -28 9 -49 19 -20 10 -39 15 -42 11z"/>
    <path d="M387 1855 c-25 -32 -44 -62 -41 -67 3 -4 1 -8 -4 -8 -6 0 -15 -14 -21 -31 -14 -41 -14 -46 4 -46 8 0 15 6 15 14 0 16 18 50 45 82 18 22 18 24 2 18 -11 -4 -16 -3 -12 3 3 6 12 10 19 10 7 0 23 11 35 24 17 18 21 29 13 42 -8 14 -16 9 -55 -41z m33 5 c0 -5 -5 -10 -11 -10 -5 0 -7 5 -4 10 3 6 8 10 11 10 2 0 4 -4 4 -10z"/>
    <path d="M1092 1834 c-6 -7 -12 -18 -12 -24 0 -5 -5 -10 -11 -10 -17 0 -3 -60 20 -85 10 -11 17 -24 15 -30 -1 -5 -8 -29 -14 -53 -8 -31 -16 -43 -28 -41 -36 4 -120 -51 -121 -79 0 -9 -5 -41 -10 -70 -13 -69 5 -117 56 -152 51 -35 149 -35 216 -1 59 30 70 44 90 107 13 42 14 59 5 85 -11 35 -48 83 -56 74 -3 -2 -17 4 -31 13 -14 10 -45 24 -68 30 -38 11 -41 15 -33 35 5 12 11 34 14 48 3 14 17 31 31 39 14 7 32 24 40 37 15 22 14 26 -5 50 -11 14 -20 23 -20 19 0 -3 -15 0 -33 7 -27 12 -35 12 -45 1z m44 -29 c4 -8 12 -15 19 -15 15 0 28 -27 19 -41 -9 -15 -25 -10 -22 7 2 10 -4 19 -12 21 -10 3 -11 2 -4 -4 8 -5 8 -16 3 -32 -9 -23 -10 -23 -29 -6 -22 20 -26 55 -8 73 16 16 27 15 34 -3z m67 -260 c12 -11 26 -20 32 -20 5 0 11 -9 13 -20 2 -11 8 -30 14 -42 18 -37 3 -105 -28 -130 -16 -12 -30 -20 -33 -18 -2 3 -9 -2 -16 -11 -8 -12 -30 -16 -84 -18 l-72 -1 -41 44 c-40 42 -41 44 -35 100 4 32 9 64 12 72 6 15 58 53 87 64 20 8 20 7 36 -78 6 -32 20 -71 32 -86 11 -16 20 -38 20 -49 0 -12 5 -24 10 -27 19 -12 10 37 -16 80 -23 40 -49 158 -39 176 7 11 83 -14 108 -36z m90 -91 c5 -30 -8 -20 -18 15 -4 15 -3 21 3 17 5 -3 12 -17 15 -32z" style="fill: rgb(87, 117, 144);"/>
    <path d="M272 1669 c-23 -4 -47 -11 -52 -14 -15 -9 -50 -81 -50 -102 0 -10 -7 -31 -15 -47 -30 -58 -35 -157 -11 -204 16 -32 55 -54 130 -74 42 -11 50 -17 68 -58 50 -111 173 -308 186 -296 2 3 -12 26 -32 52 -20 26 -36 51 -36 55 0 5 -16 33 -35 63 -29 45 -85 159 -85 172 0 2 13 4 29 4 17 0 33 5 36 10 3 6 13 10 20 10 30 0 93 56 111 97 11 24 23 43 27 43 5 0 6 4 3 9 -4 5 -1 22 4 37 9 22 7 38 -11 81 -30 75 -93 129 -170 145 -33 7 -59 16 -59 20 0 9 1 9 -58 -3z m14 -30 c4 -8 9 -7 15 2 7 11 16 6 39 -21 30 -35 39 -35 20 1 -13 22 -13 22 31 7 42 -14 99 -56 99 -73 0 -7 7 -18 15 -25 8 -7 22 -35 30 -63 15 -50 14 -52 -11 -101 -31 -60 -66 -96 -93 -96 -11 0 -21 -5 -23 -11 -2 -6 -19 -11 -38 -12 l-34 -2 -18 80 c-10 44 -19 128 -20 188 -1 59 -5 107 -9 107 -12 0 -20 -67 -15 -117 3 -26 8 -70 11 -98 2 -27 11 -75 19 -105 8 -30 13 -57 11 -59 -2 -2 -27 5 -56 15 -96 35 -126 101 -91 207 11 34 23 77 27 94 7 33 54 93 73 93 6 0 14 -5 18 -11z m274 -174 c0 -5 -5 -3 -10 5 -5 8 -10 20 -10 25 0 6 5 3 10 -5 5 -8 10 -19 10 -25z" style="fill: rgb(67, 170, 139);"/>
    <path d="M2640 1483 c0 -12 5 -25 11 -29 6 -3 9 -14 6 -24 -2 -9 2 -28 10 -41 13 -23 14 -22 8 20 -3 24 -12 55 -20 70 -13 24 -14 25 -15 4z"/>
    <path d="M2666 1349 c5 -8 14 -34 20 -59 10 -37 12 -40 12 -15 0 43 -11 78 -27 83 -10 3 -11 0 -5 -9z"/>
    <path d="M340 999 c0 -23 56 -122 100 -177 36 -45 46 -65 47 -97 1 -47 33 -79 72 -72 16 3 32 -2 46 -17 75 -72 94 -88 111 -90 11 -2 19 -9 19 -16 0 -7 6 -15 14 -18 10 -3 11 0 5 9 -6 10 -2 10 16 -2 124 -81 243 -145 332 -179 62 -23 58 -23 58 -10 0 6 -4 10 -10 10 -20 0 -188 84 -285 141 -55 33 -122 80 -150 104 -58 52 -73 50 -24 -3 18 -20 10 -15 -19 13 -46 43 -70 77 -42 60 10 -6 47 10 65 29 21 22 34 87 23 111 -16 36 -67 68 -113 71 -36 3 -47 -1 -73 -27 -18 -17 -29 -36 -25 -45 24 -64 -106 98 -139 172 -19 43 -28 54 -28 33z m286 -176 c-5 15 -2 17 17 11 44 -13 59 -35 52 -79 -7 -48 -27 -72 -68 -81 -28 -6 -35 -2 -73 41 -37 41 -41 50 -31 68 33 57 65 72 90 43 16 -17 18 -18 13 -3z m-66 -151 c-15 -5 -47 25 -53 50 -5 17 1 14 29 -13 19 -19 30 -35 24 -37z" style="fill: rgb(144, 190, 109);"/>
    <path d="M2763 658 c0 -18 -4 -43 -8 -55 -11 -34 10 -28 25 6 13 33 10 73 -6 78 -6 2 -11 -10 -11 -29z"/>
    <path d="M770 497 c0 -3 12 -12 26 -22 15 -9 23 -12 20 -6 -7 11 -46 35 -46 28z"/>
    <path d="M2625 410 c-3 -5 -1 -10 4 -10 6 0 11 5 11 10 0 6 -2 10 -4 10 -3 0 -8 -4 -11 -10z"/>
    <path d="M1903 395 c-12 -8 -27 -31 -33 -50 -10 -29 -9 -40 3 -59 19 -29 57 -37 88 -20 13 7 28 10 33 7 5 -4 6 0 1 7 -6 10 -4 12 7 7 12 -4 17 3 22 25 7 38 -14 75 -50 88 -34 13 -46 13 -71 -5z m74 -19 c7 -1 16 -6 20 -11 4 -4 3 -5 -3 -2 -7 4 -11 -6 -10 -30 1 -33 -2 -38 -32 -46 -42 -13 -56 0 -54 49 2 42 17 57 47 49 11 -3 25 -7 32 -9z" style="fill: rgb(249, 132, 74);"/>
    <path d="M1925 340 c4 -6 11 -8 16 -5 14 9 11 15 -7 15 -8 0 -12 -5 -9 -10z"/>
    <path d="M2715 390 c3 -5 11 -10 16 -10 6 0 7 5 4 10 -3 6 -11 10 -16 10 -6 0 -7 -4 -4 -10z"/>
    <path d="M1110 386 c0 -2 8 -10 18 -17 15 -13 16 -12 3 4 -13 16 -21 21 -21 13z"/>
    <path d="M1377 383 c-19 -3 -31 -13 -38 -31 -5 -15 -17 -33 -26 -40 -24 -17 -18 -90 9 -119 11 -12 41 -26 66 -32 39 -8 53 -6 89 11 50 24 101 70 95 87 -2 6 3 11 11 11 25 0 13 49 -20 81 -25 26 -38 30 -93 32 -36 2 -78 2 -93 0z m74 -23 c12 -7 25 -7 37 -1 28 15 62 -19 68 -67 4 -38 -41 -88 -79 -87 -19 1 -26 -3 -23 -12 9 -24 -69 -16 -98 10 -25 21 -31 39 -28 85 2 19 5 21 20 13 23 -12 182 -17 182 -5 0 5 -39 10 -88 10 -68 1 -88 5 -90 17 -2 9 11 20 35 30 47 20 41 19 64 7z" style="fill: rgb(249, 199, 79);"/>
    <path d="M1355 250 c3 -5 11 -10 16 -10 6 0 7 5 4 10 -3 6 -11 10 -16 10 -6 0 -7 -4 -4 -10z"/>
    <path d="M1390 235 c0 -2 10 -10 23 -16 20 -11 21 -11 8 4 -13 16 -31 23 -31 12z"/>
    <path d="M1158 353 c6 -2 12 -10 12 -17 0 -7 19 -17 43 -23 23 -6 50 -14 60 -18 9 -4 17 -3 17 2 0 10 -117 64 -135 62 -5 0 -4 -3 3 -6z"/>
    <path d="M2710 351 c0 -5 5 -13 10 -16 6 -3 10 -2 10 4 0 5 -4 13 -10 16 -5 3 -10 2 -10 -4z"/>
    <path d="M1680 316 c-3 -2 -19 -6 -35 -9 -16 -2 -30 -8 -32 -14 -5 -13 122 -5 149 8 22 12 31 11 23 -1 -9 -15 41 -12 53 3 8 9 -8 13 -72 15 -44 2 -84 1 -86 -2z"/>
    <path d="M1753 264 c0 -16 23 -19 31 -5 3 5 -2 11 -12 13 -11 3 -19 0 -19 -8z"/>
    <path d="M1808 273 c7 -3 16 -2 19 1 4 3 -2 6 -13 5 -11 0 -14 -3 -6 -6z"/>
    <path d="M1715 250 c-3 -5 1 -10 9 -10 9 0 16 5 16 10 0 6 -4 10 -9 10 -6 0 -13 -4 -16 -10z"/>
    <path d="M1136 231 c-2 -3 29 -7 70 -9 41 -2 74 0 74 5 0 10 -138 14 -144 4z"/>
    <path d="M1670 230 c0 -5 7 -7 15 -4 8 4 15 8 15 10 0 2 -7 4 -15 4 -8 0 -15 -4 -15 -10z"/>
    <path d="M1606 215 c-3 -9 2 -12 16 -10 29 6 32 12 9 18 -11 3 -22 -1 -25 -8z"/>
    <path d="M1567 209 c7 -7 15 -10 18 -7 3 3 -2 9 -12 12 -14 6 -15 5 -6 -5z"/>
  </g>
</svg>